ground reactions
version=1
nRows=33
nColumns=19
inDegrees=no
endheader
time	ground_force_l_vx	ground_force_l_vy	ground_force_l_vz	ground_force_l_px	ground_force_l_py	ground_force_l_pz	ground_torque_l_x	ground_torque_l_y	ground_torque_l_z	ground_force_r_vx	ground_force_r_vy	ground_force_r_vz	ground_force_r_px	ground_force_r_py	ground_force_r_pz	ground_torque_r_x	ground_torque_r_y	ground_torque_r_z
1.704167	-9.481997	593.286278	37.430699	0.835962	0.000000	-0.540048	0.000000	2.433623	0.000000	0.000000	0.000000	0.000000	-0.000000	-0.000000	0.000000	0.000000	-0.000000	0.000000
1.705208	-9.183593	592.709582	37.408698	0.835100	0.000000	-0.540030	0.000000	2.405054	0.000000	0.000000	0.000000	0.000000	-0.000000	-0.000000	0.000000	0.000000	-0.000000	0.000000
1.706250	-8.884944	592.169404	37.379381	0.834233	0.000000	-0.540012	0.000000	2.376168	0.000000	0.000000	0.000000	0.000000	-0.000000	-0.000000	0.000000	0.000000	-0.000000	0.000000
1.707292	-8.585725	591.665652	37.342878	0.833360	0.000000	-0.539994	0.000000	2.346937	0.000000	0.000000	0.000000	0.000000	-0.000000	-0.000000	0.000000	0.000000	-0.000000	0.000000
1.708333	-8.285650	591.198184	37.299347	0.832483	0.000000	-0.539975	0.000000	2.317338	0.000000	0.000000	0.000000	0.000000	-0.000000	-0.000000	0.000000	0.000000	-0.000000	0.000000
1.709375	-7.984475	590.766810	37.248969	0.831602	0.000000	-0.539955	0.000000	2.287349	0.000000	0.000000	0.000000	0.000000	-0.000000	-0.000000	0.000000	0.000000	-0.000000	0.000000
1.710417	-7.681996	590.371292	37.191937	0.830718	0.000000	-0.539934	0.000000	2.256953	0.000000	0.000000	0.000000	0.000000	-0.000000	-0.000000	0.000000	0.000000	-0.000000	0.000000
1.711458	-7.378057	590.011344	37.128453	0.829832	0.000000	-0.539912	0.000000	2.226137	0.000000	0.000000	0.000000	0.000000	-0.000000	-0.000000	0.000000	0.000000	-0.000000	0.000000
1.712500	-7.072544	589.686632	37.058723	0.828945	0.000000	-0.539889	0.000000	2.194890	0.000000	0.000000	0.000000	0.000000	-0.000000	-0.000000	0.000000	0.000000	-0.000000	0.000000
1.713542	-6.765389	589.396781	36.982950	0.828058	0.000000	-0.539864	0.000000	2.163207	0.000000	0.000000	0.000000	0.000000	-0.000000	-0.000000	0.000000	0.000000	-0.000000	0.000000
1.714583	-6.456570	589.141370	36.901338	0.827171	0.000000	-0.539837	0.000000	2.131088	0.000000	0.000000	0.000000	0.000000	-0.000000	-0.000000	0.000000	0.000000	-0.000000	0.000000
1.715625	-6.146105	588.919940	36.814082	0.826284	0.000000	-0.539808	0.000000	2.098534	0.000000	0.000000	0.000000	0.000000	0.000000	0.000000	-0.000000	0.000000	-0.000000	0.000000
1.716667	-5.834055	588.731996	36.721375	0.825398	0.000000	-0.539777	0.000000	2.065554	0.000000	0.000000	0.000000	0.000000	0.000000	0.000000	-0.000000	0.000000	-0.000000	0.000000
1.717708	-5.520520	588.577006	36.623407	0.824514	0.000000	-0.539744	0.000000	2.032157	0.000000	0.000000	0.000000	0.000000	0.000000	0.000000	-0.000000	0.000000	-0.000000	0.000000
1.718750	-5.205632	588.454412	36.520364	0.823632	0.000000	-0.539709	0.000000	1.998361	0.000000	0.000000	0.000000	0.000000	0.000000	0.000000	-0.000000	0.000000	-0.000000	0.000000
1.719792	-4.889558	588.363627	36.412435	0.822751	0.000000	-0.539671	0.000000	1.964183	0.000000	0.000000	0.000000	0.000000	0.000000	0.000000	-0.000000	0.000000	-0.000000	0.000000
1.720833	-4.572488	588.304042	36.299813	0.821872	0.000000	-0.539631	0.000000	1.929648	0.000000	0.000000	0.000000	0.000000	0.000000	0.000000	-0.000000	0.000000	-0.000000	0.000000
1.721875	-4.254636	588.275032	36.182703	0.820994	0.000000	-0.539588	0.000000	1.894781	0.000000	0.000000	0.000000	0.000000	0.000000	0.000000	-0.000000	0.000000	-0.000000	0.000000
1.722917	-3.936233	588.275954	36.061319	0.820118	0.000000	-0.539544	0.000000	1.859612	0.000000	0.000000	0.000000	0.000000	0.000000	0.000000	-0.000000	0.000000	-0.000000	0.000000
1.723958	-3.617520	588.306159	35.935899	0.819242	0.000000	-0.539497	0.000000	1.824173	0.000000	0.000000	0.000000	-0.000000	0.000000	0.000000	-0.000000	0.000000	-0.000000	0.000000
1.725000	-3.298748	588.364989	35.806702	0.818367	0.000000	-0.539448	0.000000	1.788500	0.000000	0.000000	0.000000	-0.000000	0.000000	0.000000	-0.000000	0.000000	-0.000000	0.000000
1.726042	-2.980168	588.451787	35.674013	0.817490	0.000000	-0.539396	0.000000	1.752631	0.000000	0.000000	0.000000	-0.000000	0.000000	0.000000	-0.000000	0.000000	-0.000000	0.000000
1.727083	-2.662029	588.565895	35.538152	0.816612	0.000000	-0.539343	0.000000	1.716604	0.000000	0.000000	0.000000	-0.000000	-0.000000	-0.000000	0.000000	0.000000	0.000000	0.000000
1.728125	-2.344572	588.706663	35.399472	0.815731	0.000000	-0.539288	0.000000	1.680462	0.000000	0.000000	0.000000	-0.000000	-0.000000	-0.000000	0.000000	0.000000	0.000000	0.000000
1.729167	-2.028031	588.873450	35.258364	0.814847	0.000000	-0.539231	0.000000	1.644247	0.000000	0.000000	0.000000	-0.000000	-0.000000	-0.000000	0.000000	0.000000	0.000000	0.000000
1.730208	-1.712622	589.065625	35.115257	0.813959	0.000000	-0.539173	0.000000	1.608002	0.000000	0.000000	-0.000000	-0.000000	-0.000000	-0.000000	0.000000	0.000000	0.000000	0.000000
1.731250	-1.398549	589.282574	34.970621	0.813065	0.000000	-0.539113	0.000000	1.571773	0.000000	0.000000	-0.000000	-0.000000	-0.000000	-0.000000	0.000000	0.000000	0.000000	0.000000
1.732292	-1.085995	589.523701	34.824960	0.812165	0.000000	-0.539052	0.000000	1.535605	0.000000	0.000000	-0.000000	-0.000000	-0.000000	-0.000000	0.000000	0.000000	0.000000	0.000000
1.733333	-0.775124	589.788427	34.678819	0.811258	0.000000	-0.538990	0.000000	1.499543	0.000000	0.000000	-0.000000	-0.000000	-0.000000	-0.000000	0.000000	0.000000	0.000000	0.000000
1.734375	-0.466080	590.076196	34.532771	0.810343	0.000000	-0.538928	0.000000	1.463632	0.000000	0.000000	-0.000000	-0.000000	-0.000000	-0.000000	0.000000	0.000000	0.000000	0.000000
1.735417	-0.158986	590.386472	34.387422	0.809421	0.000000	-0.538865	0.000000	1.427917	0.000000	0.000000	-0.000000	-0.000000	-0.000000	-0.000000	0.000000	0.000000	0.000000	0.000000
1.736458	0.146056	590.718742	34.243397	0.808490	0.000000	-0.538801	0.000000	1.392444	0.000000	0.000000	-0.000000	-0.000000	-0.000000	-0.000000	0.000000	0.000000	0.000000	0.000000
1.737500	0.448963	591.072515	34.101339	0.807550	0.000000	-0.538738	0.000000	1.357255	0.000000	0.000000	-0.000000	-0.000000	-0.000000	-0.000000	0.000000	0.000000	0.000000	0.000000
